<svg width="20" height="20" viewBox="0 0 20 20" fill="none" xmlns="http://www.w3.org/2000/svg">
<path d="M14.4498 4.55033C14.2521 4.55033 14.0587 4.60897 13.8943 4.71886C13.7298 4.82874 13.6016 4.98492 13.526 5.16764C13.4503 5.35037 13.4305 5.55143 13.4691 5.74542C13.5076 5.9394 13.6029 6.11758 13.7427 6.25743C13.8826 6.39728 14.0608 6.49253 14.2547 6.53111C14.4487 6.5697 14.6498 6.54989 14.8325 6.47421C15.0152 6.39852 15.1714 6.27035 15.2813 6.1059C15.3912 5.94145 15.4498 5.74811 15.4498 5.55033C15.4498 5.28511 15.3445 5.03076 15.1569 4.84322C14.9694 4.65568 14.7151 4.55033 14.4498 4.55033ZM18.2832 6.56699C18.267 5.87557 18.1375 5.19149 17.8998 4.54199C17.6879 3.98627 17.3582 3.48306 16.9332 3.06699C16.5205 2.63985 16.0161 2.31214 15.4582 2.10866C14.8104 1.86379 14.1255 1.73133 13.4332 1.71699C12.5498 1.66699 12.2665 1.66699 9.99984 1.66699C7.73317 1.66699 7.44984 1.66699 6.5665 1.71699C5.87413 1.73133 5.18929 1.86379 4.5415 2.10866C3.98457 2.3142 3.48062 2.64163 3.0665 3.06699C2.63936 3.47964 2.31165 3.98403 2.10817 4.54199C1.8633 5.18978 1.73085 5.87462 1.7165 6.56699C1.6665 7.45033 1.6665 7.73366 1.6665 10.0003C1.6665 12.267 1.6665 12.5503 1.7165 13.4337C1.73085 14.126 1.8633 14.8109 2.10817 15.4587C2.31165 16.0166 2.63936 16.521 3.0665 16.9337C3.48062 17.359 3.98457 17.6865 4.5415 17.892C5.18929 18.1369 5.87413 18.2693 6.5665 18.2837C7.44984 18.3337 7.73317 18.3337 9.99984 18.3337C12.2665 18.3337 12.5498 18.3337 13.4332 18.2837C14.1255 18.2693 14.8104 18.1369 15.4582 17.892C16.0161 17.6885 16.5205 17.3608 16.9332 16.9337C17.36 16.5191 17.6901 16.0155 17.8998 15.4587C18.1375 14.8092 18.267 14.1251 18.2832 13.4337C18.2832 12.5503 18.3332 12.267 18.3332 10.0003C18.3332 7.73366 18.3332 7.45033 18.2832 6.56699ZM16.7832 13.3337C16.7771 13.8626 16.6813 14.3867 16.4998 14.8837C16.3668 15.2463 16.1531 15.574 15.8748 15.842C15.6045 16.1174 15.2775 16.3307 14.9165 16.467C14.4196 16.6485 13.8955 16.7443 13.3665 16.7503C12.5332 16.792 12.2248 16.8003 10.0332 16.8003C7.8415 16.8003 7.53317 16.8003 6.69984 16.7503C6.15058 16.7606 5.60367 16.676 5.08317 16.5003C4.73799 16.3571 4.42597 16.1443 4.1665 15.8753C3.88991 15.6076 3.67887 15.2797 3.54984 14.917C3.34638 14.413 3.23354 13.8769 3.2165 13.3337C3.2165 12.5003 3.1665 12.192 3.1665 10.0003C3.1665 7.80866 3.1665 7.50033 3.2165 6.66699C3.22024 6.12621 3.31896 5.59028 3.50817 5.08366C3.65488 4.73192 3.88006 4.41837 4.1665 4.16699C4.41968 3.88047 4.73258 3.65291 5.08317 3.50033C5.59113 3.31703 6.1265 3.22123 6.6665 3.21699C7.49984 3.21699 7.80817 3.16699 9.99984 3.16699C12.1915 3.16699 12.4998 3.16699 13.3332 3.21699C13.8621 3.22306 14.3863 3.31886 14.8832 3.50033C15.2619 3.64087 15.6017 3.86936 15.8748 4.16699C16.1479 4.42297 16.3613 4.73594 16.4998 5.08366C16.685 5.5911 16.7809 6.12681 16.7832 6.66699C16.8248 7.50033 16.8332 7.80866 16.8332 10.0003C16.8332 12.192 16.8248 12.5003 16.7832 13.3337ZM9.99984 5.72533C9.15468 5.72697 8.32897 5.9791 7.62705 6.44984C6.92513 6.92058 6.37849 7.58882 6.0562 8.37012C5.73391 9.15142 5.65044 10.0107 5.81633 10.8394C5.98222 11.6682 6.39003 12.4291 6.98823 13.0261C7.58643 13.6232 8.34818 14.0295 9.17722 14.1938C10.0063 14.3581 10.8654 14.2729 11.6461 13.9491C12.4267 13.6253 13.0939 13.0774 13.5633 12.3745C14.0327 11.6717 14.2832 10.8455 14.2832 10.0003C14.2843 9.43791 14.1742 8.88083 13.9592 8.36112C13.7442 7.84141 13.4286 7.36933 13.0306 6.97203C12.6325 6.57474 12.1598 6.26006 11.6397 6.0461C11.1195 5.83214 10.5622 5.72313 9.99984 5.72533ZM9.99984 12.7753C9.45099 12.7753 8.91448 12.6126 8.45813 12.3077C8.00178 12.0027 7.6461 11.5693 7.43607 11.0623C7.22604 10.5552 7.17108 9.99725 7.27816 9.45895C7.38523 8.92065 7.64953 8.4262 8.03762 8.0381C8.42571 7.65001 8.92016 7.38572 9.45846 7.27865C9.99676 7.17157 10.5547 7.22653 11.0618 7.43656C11.5688 7.64659 12.0022 8.00227 12.3072 8.45862C12.6121 8.91496 12.7748 9.45148 12.7748 10.0003C12.7748 10.3647 12.7031 10.7256 12.5636 11.0623C12.4241 11.399 12.2197 11.7049 11.9621 11.9625C11.7044 12.2202 11.3985 12.4246 11.0618 12.5641C10.7251 12.7035 10.3643 12.7753 9.99984 12.7753Z" fill="#03505C"/>
</svg>
