<svg width="20" height="20" viewBox="0 0 20 20" fill="none" xmlns="http://www.w3.org/2000/svg">
<path d="M14.45 4.55033C14.2522 4.55033 14.0588 4.60897 13.8944 4.71886C13.7299 4.82874 13.6018 4.98492 13.5261 5.16764C13.4504 5.35037 13.4306 5.55143 13.4692 5.74542C13.5078 5.9394 13.603 6.11758 13.7429 6.25743C13.8827 6.39728 14.0609 6.49253 14.2549 6.53111C14.4489 6.5697 14.6499 6.54989 14.8326 6.47421C15.0154 6.39852 15.1715 6.27035 15.2814 6.1059C15.3913 5.94145 15.45 5.74811 15.45 5.55033C15.45 5.28511 15.3446 5.03076 15.1571 4.84322C14.9695 4.65568 14.7152 4.55033 14.45 4.55033ZM18.2833 6.56699C18.2671 5.87557 18.1376 5.19149 17.9 4.54199C17.6881 3.98627 17.3583 3.48306 16.9333 3.06699C16.5206 2.63985 16.0163 2.31214 15.4583 2.10866C14.8105 1.86379 14.1257 1.73133 13.4333 1.71699C12.55 1.66699 12.2666 1.66699 9.99996 1.66699C7.73329 1.66699 7.44996 1.66699 6.56663 1.71699C5.87425 1.73133 5.18941 1.86379 4.54163 2.10866C3.98469 2.3142 3.48074 2.64163 3.06663 3.06699C2.63948 3.47964 2.31177 3.98403 2.10829 4.54199C1.86343 5.18978 1.73097 5.87462 1.71663 6.56699C1.66663 7.45033 1.66663 7.73366 1.66663 10.0003C1.66663 12.267 1.66663 12.5503 1.71663 13.4337C1.73097 14.126 1.86343 14.8109 2.10829 15.4587C2.31177 16.0166 2.63948 16.521 3.06663 16.9337C3.48074 17.359 3.98469 17.6865 4.54163 17.892C5.18941 18.1369 5.87425 18.2693 6.56663 18.2837C7.44996 18.3337 7.73329 18.3337 9.99996 18.3337C12.2666 18.3337 12.55 18.3337 13.4333 18.2837C14.1257 18.2693 14.8105 18.1369 15.4583 17.892C16.0163 17.6885 16.5206 17.3608 16.9333 16.9337C17.3602 16.5191 17.6902 16.0155 17.9 15.4587C18.1376 14.8092 18.2671 14.1251 18.2833 13.4337C18.2833 12.5503 18.3333 12.267 18.3333 10.0003C18.3333 7.73366 18.3333 7.45033 18.2833 6.56699ZM16.7833 13.3337C16.7772 13.8626 16.6814 14.3867 16.5 14.8837C16.3669 15.2463 16.1532 15.574 15.875 15.842C15.6047 16.1174 15.2776 16.3307 14.9166 16.467C14.4197 16.6485 13.8956 16.7443 13.3666 16.7503C12.5333 16.792 12.225 16.8003 10.0333 16.8003C7.84163 16.8003 7.53329 16.8003 6.69996 16.7503C6.1507 16.7606 5.60379 16.676 5.08329 16.5003C4.73811 16.3571 4.42609 16.1443 4.16663 15.8753C3.89003 15.6076 3.679 15.2797 3.54996 14.917C3.34651 14.413 3.23366 13.8769 3.21663 13.3337C3.21663 12.5003 3.16663 12.192 3.16663 10.0003C3.16663 7.80866 3.16663 7.50033 3.21663 6.66699C3.22036 6.12621 3.31908 5.59028 3.50829 5.08366C3.655 4.73192 3.88018 4.41837 4.16663 4.16699C4.4198 3.88047 4.7327 3.65291 5.08329 3.50033C5.59125 3.31703 6.12662 3.22123 6.66663 3.21699C7.49996 3.21699 7.80829 3.16699 9.99996 3.16699C12.1916 3.16699 12.5 3.16699 13.3333 3.21699C13.8623 3.22306 14.3864 3.31886 14.8833 3.50033C15.262 3.64087 15.6019 3.86936 15.875 4.16699C16.148 4.42297 16.3614 4.73594 16.5 5.08366C16.6852 5.5911 16.781 6.12681 16.7833 6.66699C16.825 7.50033 16.8333 7.80866 16.8333 10.0003C16.8333 12.192 16.825 12.5003 16.7833 13.3337ZM9.99996 5.72533C9.1548 5.72697 8.32909 5.9791 7.62717 6.44984C6.92525 6.92058 6.37861 7.58882 6.05632 8.37012C5.73403 9.15142 5.65056 10.0107 5.81645 10.8394C5.98235 11.6682 6.39016 12.4291 6.98836 13.0261C7.58656 13.6232 8.3483 14.0295 9.17734 14.1938C10.0064 14.3581 10.8655 14.2729 11.6462 13.9491C12.4269 13.6253 13.094 13.0774 13.5634 12.3745C14.0328 11.6717 14.2833 10.8455 14.2833 10.0003C14.2844 9.43791 14.1743 8.88083 13.9593 8.36112C13.7444 7.84141 13.4288 7.36933 13.0307 6.97203C12.6326 6.57474 12.1599 6.26006 11.6398 6.0461C11.1197 5.83214 10.5624 5.72313 9.99996 5.72533ZM9.99996 12.7753C9.45112 12.7753 8.9146 12.6126 8.45825 12.3077C8.00191 12.0027 7.64623 11.5693 7.43619 11.0623C7.22616 10.5552 7.17121 9.99725 7.27828 9.45895C7.38535 8.92065 7.64965 8.4262 8.03774 8.0381C8.42583 7.65001 8.92029 7.38572 9.45858 7.27865C9.99688 7.17157 10.5548 7.22653 11.0619 7.43656C11.569 7.64659 12.0024 8.00227 12.3073 8.45862C12.6122 8.91496 12.775 9.45148 12.775 10.0003C12.775 10.3647 12.7032 10.7256 12.5637 11.0623C12.4243 11.399 12.2199 11.7049 11.9622 11.9625C11.7045 12.2202 11.3986 12.4246 11.0619 12.5641C10.7252 12.7035 10.3644 12.7753 9.99996 12.7753Z" fill="white"/>
</svg>
