<svg width="20" height="20" viewBox="0 0 20 20" fill="none" xmlns="http://www.w3.org/2000/svg">
<path d="M17.0583 1.66711H2.94167C2.78299 1.6649 2.62543 1.69398 2.47798 1.75268C2.33053 1.81138 2.19609 1.89854 2.08234 2.0092C1.96858 2.11986 1.87774 2.25185 1.815 2.39762C1.75226 2.54339 1.71885 2.70009 1.71667 2.85878V17.1421C1.71885 17.3008 1.75226 17.4575 1.815 17.6033C1.87774 17.749 1.96858 17.881 2.08234 17.9917C2.19609 18.1023 2.33053 18.1895 2.47798 18.2482C2.62543 18.3069 2.78299 18.336 2.94167 18.3338H17.0583C17.217 18.336 17.3746 18.3069 17.522 18.2482C17.6695 18.1895 17.8039 18.1023 17.9177 17.9917C18.0314 17.881 18.1223 17.749 18.185 17.6033C18.2478 17.4575 18.2812 17.3008 18.2833 17.1421V2.85878C18.2812 2.70009 18.2478 2.54339 18.185 2.39762C18.1223 2.25185 18.0314 2.11986 17.9177 2.0092C17.8039 1.89854 17.6695 1.81138 17.522 1.75268C17.3746 1.69398 17.217 1.6649 17.0583 1.66711ZM6.74167 15.6171H4.24167V8.11711H6.74167V15.6171ZM5.49167 7.06711C5.14689 7.06711 4.81623 6.93014 4.57244 6.68635C4.32864 6.44255 4.19167 6.11189 4.19167 5.76711C4.19167 5.42233 4.32864 5.09167 4.57244 4.84787C4.81623 4.60407 5.14689 4.46711 5.49167 4.46711C5.67475 4.44635 5.86016 4.46449 6.03574 4.52034C6.21132 4.5762 6.37312 4.66852 6.51056 4.79124C6.64799 4.91397 6.75795 5.06434 6.83323 5.23251C6.90852 5.40068 6.94744 5.58286 6.94744 5.76711C6.94744 5.95136 6.90852 6.13354 6.83323 6.30171C6.75795 6.46988 6.64799 6.62025 6.51056 6.74297C6.37312 6.8657 6.21132 6.95801 6.03574 7.01387C5.86016 7.06973 5.67475 7.08787 5.49167 7.06711ZM15.7583 15.6171H13.2583V11.5921C13.2583 10.5838 12.9 9.92544 11.9917 9.92544C11.7106 9.9275 11.4368 10.0157 11.2074 10.1781C10.9779 10.3405 10.8037 10.5693 10.7083 10.8338C10.6431 11.0296 10.6149 11.2359 10.625 11.4421V15.6088H8.12501C8.12501 15.6088 8.12501 8.79211 8.12501 8.10878H10.625V9.16711C10.8521 8.77303 11.1824 8.44838 11.5804 8.22811C11.9783 8.00785 12.4288 7.90032 12.8833 7.91711C14.55 7.91711 15.7583 8.99211 15.7583 11.3004V15.6171Z" fill="white"/>
</svg>
