<svg width="20" height="20" viewBox="0 0 20 20" fill="none" xmlns="http://www.w3.org/2000/svg">
<path d="M18.3333 4.83351C17.7069 5.10525 17.0445 5.28489 16.3666 5.36684C17.0818 4.93961 17.6177 4.26749 17.875 3.47517C17.2029 3.87523 16.4673 4.15709 15.7 4.30851C15.1871 3.75232 14.5041 3.38209 13.7581 3.25588C13.0122 3.12968 12.2454 3.25464 11.5781 3.61117C10.9108 3.96769 10.3807 4.53562 10.071 5.22587C9.76125 5.91613 9.68937 6.68967 9.86663 7.42517C8.50782 7.35645 7.17866 7.00264 5.96551 6.38673C4.75235 5.77082 3.68233 4.90659 2.82496 3.85017C2.52424 4.37531 2.36623 4.97003 2.36663 5.57517C2.36556 6.13716 2.50347 6.69069 2.76809 7.18648C3.0327 7.68227 3.41581 8.10493 3.88329 8.41684C3.33994 8.40206 2.8082 8.25626 2.33329 7.99184V8.03351C2.33737 8.82092 2.61329 9.58275 3.11439 10.1901C3.61549 10.7975 4.31101 11.2132 5.08329 11.3668C4.78601 11.4573 4.47736 11.505 4.16663 11.5085C3.95153 11.506 3.73698 11.4865 3.52496 11.4502C3.74488 12.1275 4.17048 12.7195 4.74252 13.1436C5.31457 13.5678 6.00461 13.8031 6.71663 13.8168C5.5143 14.7629 4.02986 15.2792 2.49996 15.2835C2.22141 15.2844 1.94307 15.2677 1.66663 15.2335C3.22865 16.2421 5.04897 16.7774 6.90829 16.7752C8.19137 16.7885 9.46424 16.546 10.6526 16.0619C11.8409 15.5778 12.9208 14.8617 13.8293 13.9556C14.7378 13.0494 15.4566 11.9713 15.9438 10.7843C16.4309 9.59719 16.6767 8.32495 16.6666 7.04184C16.6666 6.90017 16.6666 6.75017 16.6666 6.60017C17.3205 6.11252 17.8845 5.5147 18.3333 4.83351Z" fill="white"/>
</svg>
