<svg width="16" height="16" viewBox="0 0 16 16" fill="none" xmlns="http://www.w3.org/2000/svg">
<path d="M14.025 10.7171L11.9084 10.4755C11.6595 10.4462 11.4072 10.4738 11.1705 10.5561C10.9338 10.6383 10.7188 10.7732 10.5417 10.9505L9.00837 12.4838C6.64269 11.2806 4.71985 9.3578 3.5167 6.99212L5.05837 5.45046C5.4167 5.09212 5.5917 4.59212 5.53337 4.08379L5.2917 1.98379C5.24446 1.57727 5.04936 1.20232 4.74356 0.93033C4.43777 0.658339 4.04262 0.508304 3.63337 0.50879H2.1917C1.25003 0.50879 0.466701 1.29212 0.525034 2.23379C0.966701 9.35046 6.65837 15.0338 13.7667 15.4755C14.7084 15.5338 15.4917 14.7505 15.4917 13.8088V12.3671C15.5 11.5255 14.8667 10.8171 14.025 10.7171Z" fill="white"/>
</svg>
